<svg width="24" height="24" viewBox="0 0 24 24" fill="none" xmlns="http://www.w3.org/2000/svg">
<path d="M12.0204 2.00104C12.0435 2.0015 12.0667 2.00191 12.0897 2.00397C12.0982 2.00473 12.1067 2.00593 12.1151 2.0069C12.1236 2.00788 12.132 2.0096 12.1405 2.0108C12.1571 2.01315 12.1738 2.01542 12.1903 2.01862C12.1969 2.01988 12.2034 2.02114 12.2098 2.02252C12.2174 2.02414 12.2248 2.02659 12.2323 2.02838C12.2467 2.0318 12.261 2.03505 12.2753 2.03912C12.2867 2.04239 12.2982 2.04523 12.3095 2.04889L12.3104 2.04987L12.3515 2.06354C12.3561 2.06528 12.3605 2.06758 12.3651 2.0694C12.3772 2.07416 12.3894 2.07883 12.4013 2.08405C12.4102 2.08795 12.4188 2.09257 12.4276 2.09674C12.4364 2.10091 12.4453 2.10499 12.454 2.10944C12.4759 2.12058 12.4973 2.13275 12.5184 2.14557C12.5257 2.14997 12.5328 2.15463 12.5399 2.15924C12.5603 2.17233 12.58 2.18656 12.5995 2.20123C12.6042 2.20473 12.6095 2.20741 12.6141 2.211C12.6172 2.21341 12.6199 2.21637 12.6229 2.21881C12.628 2.22287 12.6336 2.22637 12.6386 2.23053C12.649 2.2392 12.6587 2.24873 12.6688 2.25787C12.6762 2.26453 12.6841 2.27057 12.6913 2.2774L12.7069 2.29303C12.7094 2.29547 12.7113 2.29837 12.7138 2.30084C12.7191 2.30627 12.7242 2.31187 12.7294 2.31744C12.7467 2.33591 12.7635 2.35458 12.7792 2.37408C12.7823 2.37803 12.7858 2.3818 12.789 2.3858L19.789 11.3858C20.1279 11.8216 20.0498 12.45 19.6141 12.7891C19.1783 13.1281 18.55 13.0499 18.2108 12.6143L12.9999 5.91315V21.0001C12.9999 21.5523 12.5521 22 11.9999 22.0001C11.4476 22.0001 10.9999 21.5523 10.9999 21.0001V5.91315L5.78895 12.6143C5.44983 13.0499 4.82146 13.1281 4.38563 12.7891C3.94999 12.45 3.87186 11.8216 4.21083 11.3858L11.2108 2.3858C11.2142 2.38143 11.2181 2.37741 11.2216 2.37311C11.234 2.3577 11.2462 2.34198 11.2597 2.32721C11.2654 2.32088 11.2714 2.3148 11.2772 2.30865L11.3085 2.2774C11.3146 2.27154 11.3207 2.26556 11.327 2.25983C11.3418 2.24637 11.3575 2.23417 11.3729 2.22174C11.3772 2.21827 11.3812 2.21441 11.3856 2.211C11.3901 2.20756 11.3948 2.20459 11.3993 2.20123C11.4188 2.18655 11.4385 2.17234 11.4589 2.15924C11.466 2.15463 11.4731 2.14998 11.4804 2.14557C11.5015 2.13274 11.5229 2.12059 11.5448 2.10944C11.5535 2.10498 11.5624 2.10092 11.5712 2.09674C11.58 2.09256 11.5886 2.08795 11.5975 2.08405C11.6098 2.07865 11.6221 2.07333 11.6347 2.06842C11.6485 2.063 11.6627 2.05855 11.6766 2.05377C11.679 2.05298 11.6811 2.05162 11.6835 2.05084C11.6969 2.04636 11.7108 2.04304 11.7245 2.03912C11.7384 2.03514 11.7525 2.03174 11.7665 2.02838C11.7743 2.02651 11.7821 2.02421 11.7899 2.02252C11.7942 2.02162 11.7984 2.02045 11.8026 2.01959C11.8211 2.0159 11.8397 2.01344 11.8583 2.0108C11.8642 2.00996 11.87 2.00861 11.8759 2.00787L11.8847 2.0069C11.8925 2.006 11.9002 2.00468 11.9081 2.00397L11.9315 2.00201C11.9416 2.00133 11.9517 2.00141 11.9618 2.00104C11.9677 2.00081 11.9735 2.00116 11.9794 2.00104C11.9862 2.0009 11.993 2.00006 11.9999 2.00006C12.0067 2.00006 12.0136 2.0009 12.0204 2.00104Z" fill="#B9C5C9"/>
</svg>
