<svg width="24" height="24" viewBox="0 0 24 24" fill="none" xmlns="http://www.w3.org/2000/svg">
<path d="M12 2C12.5523 2 13 2.44772 13 3V3.07227C16.3922 3.55758 19 6.4736 19 10V14.5029C19.6064 14.9591 20 15.6828 20 16.5C20 17.8807 18.8807 19 17.5 19H15.874C15.43 20.7252 13.8638 22 12 22C10.1362 22 8.57002 20.7252 8.12598 19H6.5C5.11929 19 4 17.8807 4 16.5C4 15.6828 4.39363 14.9591 5 14.5029V10C5 6.4736 7.6078 3.55758 11 3.07227V3C11 2.44772 11.4477 2 12 2ZM10.2695 19C10.6155 19.5973 11.2601 20 12 20C12.7399 20 13.3845 19.5973 13.7305 19H10.2695ZM12 5C9.23858 5 7 7.23858 7 10V15.501L6.20215 16.1016C6.07302 16.1989 6 16.3422 6 16.5C6 16.7761 6.22386 17 6.5 17H17.5C17.7761 17 18 16.7761 18 16.5C18 16.3422 17.927 16.1989 17.7979 16.1016L17 15.501V10C17 7.23858 14.7614 5 12 5Z" fill="#B9C5C9"/>
</svg>
