<svg width="24" height="24" viewBox="0 0 24 24" fill="none" xmlns="http://www.w3.org/2000/svg">
<path d="M12 5.02268L5 9.7417V18.9773H8.33301V14.7067C8.33324 12.6588 9.9751 10.999 12 10.999C14.0249 10.999 15.6668 12.6588 15.667 14.7067V18.9773H19V9.7417L12 5.02268ZM21 18.9773C21 20.0944 20.1046 21 19 21H15.667C14.5624 21 13.667 20.0944 13.667 18.9773V14.7067C13.6668 13.7759 12.9203 13.0217 12 13.0217C11.0797 13.0217 10.3332 13.7759 10.333 14.7067V18.9773C10.333 20.0944 9.43758 21 8.33301 21H5C3.89543 21 3 20.0944 3 18.9773V9.7417C3.00012 9.06554 3.33433 8.43382 3.89062 8.05874L10.8906 3.33972C11.5624 2.88676 12.4376 2.88676 13.1094 3.33972L20.1094 8.05874C20.6657 8.43382 20.9999 9.06554 21 9.7417V18.9773Z" fill="#B9C5C9"/>
</svg>
