<svg width="24" height="24" viewBox="0 0 24 24" fill="none" xmlns="http://www.w3.org/2000/svg">
<path d="M17.2549 4.625C17.6232 4.21352 18.2555 4.17856 18.667 4.54688C20.711 6.37644 21.9999 9.03847 22 12C21.9998 17.5227 17.5227 22 12 22C6.47727 22 2.00019 17.5227 2 12C2.00009 9.03847 3.28898 6.37644 5.33301 4.54688C5.74452 4.17856 6.37678 4.21352 6.74512 4.625C7.11324 5.03651 7.0784 5.66884 6.66699 6.03711C5.0289 7.50332 4.00009 9.63097 4 12C4.00019 16.4181 7.58184 20 12 20C16.4182 20 19.9998 16.4181 20 12C19.9999 9.63097 18.9711 7.50332 17.333 6.03711C16.9216 5.66884 16.8868 5.03651 17.2549 4.625ZM12 2C12.5523 2 13 2.44772 13 3V11C13 11.5523 12.5523 12 12 12C11.4477 12 11 11.5523 11 11V3C11 2.44772 11.4477 2 12 2Z" fill="#B9C5C9"/>
</svg>
