<svg width="24" height="24" viewBox="0 0 24 24" fill="none" xmlns="http://www.w3.org/2000/svg">
<path d="M14 7.57129V6C14 5.44772 13.5523 5 13 5H6C5.44772 5 5 5.44772 5 6V18C5 18.5523 5.44771 19 6 19H13C13.5523 19 14 18.5523 14 18V16.4287C14 15.8764 14.4477 15.4287 15 15.4287C15.5523 15.4287 16 15.8764 16 16.4287V18C16 19.6569 14.6569 21 13 21H6C4.34315 21 3 19.6569 3 18V6C3 4.34315 4.34315 3 6 3H13C14.6569 3 16 4.34315 16 6V7.57129C16 8.12357 15.5523 8.57129 15 8.57129C14.4477 8.57129 14 8.12357 14 7.57129Z" fill="#B9C5C9"/>
<path d="M16.8594 8.23181C17.2836 7.87827 17.915 7.93555 18.2686 8.35974L20.7686 11.3597C21.0776 11.7306 21.0776 12.2701 20.7686 12.641L18.2686 15.641C17.915 16.0652 17.2836 16.1225 16.8594 15.7689C16.4352 15.4153 16.3779 14.784 16.7314 14.3597L17.8643 13.0004H11C10.4477 13.0004 10 12.5526 10 12.0004C10 11.4481 10.4477 11.0004 11 11.0004H17.8643L16.7314 9.64099C16.3779 9.21674 16.4352 8.58539 16.8594 8.23181Z" fill="#B9C5C9"/>
</svg>
