<svg width="24" height="24" viewBox="0 0 24 24" fill="none" xmlns="http://www.w3.org/2000/svg">
<path fill-rule="evenodd" clip-rule="evenodd" d="M15.6262 3.78783C16.8287 2.70188 18.6847 2.73872 19.8435 3.89753L20.1028 4.15581L20.2115 4.27049C21.2629 5.43425 21.2628 7.21042 20.2115 8.37409L20.1028 8.48777L19.4885 9.10705C19.4982 9.09734 19.4797 9.11733 19.4885 9.10705L7.74491 20.8504L7.66712 20.9142C7.58392 20.9697 7.48535 21 7.3839 21L3.51059 20.999C3.22867 20.9989 3 20.7704 3 20.4884V16.6162C3 16.5146 3.0302 16.4153 3.08576 16.332L3.14959 16.2552L14.8932 4.51182C14.8877 4.51683 14.8985 4.50653 14.8932 4.51182L15.5115 3.89653L15.6262 3.78783ZM4.22562 19.7734H6.52527L4.22562 17.4738V19.7734ZM4.81001 16.327L7.67211 19.189L18.1163 8.74606L15.2542 5.88401L4.81001 16.327ZM18.9769 4.76412C18.2592 4.0464 17.0959 4.04567 16.3781 4.76312L16.1318 5.00944L18.9899 7.8675L19.2362 7.62118C19.9537 6.90337 19.9539 5.74012 19.2362 5.0224L18.9769 4.76412Z" fill="#B9C5C9"/>
</svg>
