<svg width="24" height="24" viewBox="0 0 24 24" fill="none" xmlns="http://www.w3.org/2000/svg">
<path d="M17 3C19.2091 3 21 4.79086 21 7V17C21 19.2091 19.2091 21 17 21H7C4.79086 21 3 19.2091 3 17V7C3 4.79086 4.79086 3 7 3H17ZM5 15.375V17L5.01074 17.2041C5.1062 18.1457 5.85435 18.8938 6.7959 18.9893L7 19H17L17.2041 18.9893C18.2128 18.887 19 18.0357 19 17V15.459L16.5 13.3154L13.6504 15.7588C13.2425 16.1084 12.6317 16.0737 12.2666 15.6797L8.39258 11.4951L5 15.375ZM7 5C5.89543 5 5 5.89543 5 7V12.3369L7.61914 9.3418L7.69238 9.26562C7.87261 9.09884 8.10944 9.0036 8.35742 9C8.64077 8.99599 8.91288 9.11247 9.10547 9.32031L13.0801 13.6143L15.8496 11.2412L15.9219 11.1846C16.2925 10.9214 16.7994 10.9403 17.1504 11.2412L19 12.8262V7C19 5.89543 18.1046 5 17 5H7ZM16 7C16.5523 7 17 7.44772 17 8C17 8.55228 16.5523 9 16 9C15.4477 9 15 8.55228 15 8C15 7.44772 15.4477 7 16 7Z" fill="#B9C5C9"/>
</svg>
