<svg width="24" height="24" viewBox="0 0 24 24" fill="none" xmlns="http://www.w3.org/2000/svg">
<path d="M12.8662 7.58301C13.9308 7.58313 14.8257 7.86405 15.4355 8.33887C16.0238 8.79697 16.4004 9.47291 16.4004 10.418C16.4003 11.363 16.0238 12.039 15.4355 12.4971C14.8257 12.9718 13.9308 13.2528 12.8662 13.2529H12.1348V7.58301H12.8662Z" fill="white"/>
<path fill-rule="evenodd" clip-rule="evenodd" d="M18.5996 3C19.9251 3 21 4.07491 21 5.40039V18.5996C21 19.9251 19.9251 21 18.5996 21H5.40039C4.07491 21 3 19.9251 3 18.5996V5.40039C3 4.07491 4.07491 3 5.40039 3H18.5996ZM6 6V7.58301H7.86719V18H9.46777V7.58301H10.5342V18H12.1348V14.835H12.8662C14.1948 14.8348 15.4672 14.4865 16.4258 13.7402C17.406 12.977 17.9999 11.8395 18 10.418C18 8.99648 17.4059 7.85903 16.4258 7.0957C15.4672 6.3494 14.1948 6.00012 12.8662 6H6Z" fill="white"/>
</svg>
