<svg width="24" height="24" viewBox="0 0 24 24" fill="none" xmlns="http://www.w3.org/2000/svg">
<path fill-rule="evenodd" clip-rule="evenodd" d="M13.5858 3C17.4518 3.00009 20.5858 6.13406 20.5858 10C20.5858 13.8659 17.4518 16.9999 13.5858 17C12.1198 17 10.7592 16.5487 9.63467 15.7783L4.70693 20.707C4.31641 21.0975 3.68338 21.0975 3.29287 20.707C2.90236 20.3165 2.90239 19.6835 3.29287 19.293L8.16103 14.4238C7.1765 13.218 6.58584 11.6781 6.58584 10C6.58584 6.13401 9.71985 3 13.5858 3ZM13.5858 5C10.8244 5 8.58584 7.23858 8.58584 10C8.58584 12.7614 10.8244 15 13.5858 15C16.3472 14.9999 18.5858 12.7614 18.5858 10C18.5858 7.23863 16.3472 5.00009 13.5858 5Z" fill="#3E4549"/>
</svg>
