<svg width="48" height="48" viewBox="0 0 48 48" fill="none" xmlns="http://www.w3.org/2000/svg">
<path d="M24 0C37.2548 0 48 10.7452 48 24C48 37.2548 37.2548 48 24 48C10.7452 48 0 37.2548 0 24C0 10.7452 10.7452 0 24 0ZM26.1104 10.873C24.9401 9.70906 23.0492 9.70906 21.8789 10.873L12.5605 20.1416C11.8131 20.885 11.8131 22.0945 12.5605 22.8379C13.3023 23.5756 14.5004 23.5757 15.2422 22.8379L21.8789 16.2373C21.9462 16.1704 22.0161 16.1071 22.0879 16.0479V36.0977C22.0879 37.1507 22.9412 38.0047 23.9941 38.0049C25.0473 38.0049 25.9013 37.1508 25.9014 36.0977V16.0479C25.9731 16.1071 26.0431 16.1704 26.1104 16.2373L32.7471 22.8379C33.4888 23.5756 34.6869 23.5756 35.4287 22.8379C36.1762 22.0945 36.1762 20.885 35.4287 20.1416L26.1104 10.873Z" fill="#A8CDDC"/>
</svg>
