<svg width="24" height="24" viewBox="0 0 24 24" fill="none" xmlns="http://www.w3.org/2000/svg">
<path d="M18.9031 3C20.061 3.00001 20.9998 3.93883 20.9998 5.09668V10.5176C20.9998 11.0736 20.7787 11.6068 20.3855 12L11.9998 20.3857C11.1811 21.2045 9.85368 21.2045 9.03495 20.3857L3.61405 14.9648C2.79532 14.1461 2.79532 12.8187 3.61405 12L11.9998 3.61426C12.393 3.22109 12.9262 3 13.4822 3H18.9031ZM17.9998 5C17.4475 5 16.9998 5.44772 16.9998 6C16.9998 6.55228 17.4475 7 17.9998 7C18.552 6.99989 18.9998 6.55221 18.9998 6C18.9998 5.44779 18.552 5.00011 17.9998 5Z" fill="#B9C5C9"/>
</svg>
