<svg width="24" height="24" viewBox="0 0 24 24" fill="none" xmlns="http://www.w3.org/2000/svg">
<path fill-rule="evenodd" clip-rule="evenodd" d="M12 2C17.5228 2 22 6.47715 22 12C22 17.5228 17.5228 22 12 22C6.47715 22 2 17.5228 2 12C2 6.47715 6.47715 2 12 2ZM7 10.7998C6.33726 10.7998 5.7998 11.3373 5.7998 12C5.79981 12.6627 6.33726 13.2002 7 13.2002C7.66273 13.2002 8.20019 12.6627 8.2002 12C8.2002 11.3373 7.66274 10.7998 7 10.7998ZM12 10.7998C11.3373 10.7998 10.7998 11.3373 10.7998 12C10.7998 12.6627 11.3373 13.2002 12 13.2002C12.6627 13.2002 13.2002 12.6627 13.2002 12C13.2002 11.3373 12.6627 10.7998 12 10.7998ZM17 10.7998C16.3373 10.7998 15.7998 11.3373 15.7998 12C15.7998 12.6627 16.3373 13.2002 17 13.2002C17.6627 13.2002 18.2002 12.6627 18.2002 12C18.2002 11.3373 17.6627 10.7998 17 10.7998Z" fill="white"/>
</svg>
