<svg width="24" height="24" viewBox="0 0 24 24" fill="none" xmlns="http://www.w3.org/2000/svg">
<path d="M15.5 19.7998V21H8.5V19.7998H15.5ZM17.2998 18V6.2002H6.7002V18C6.7002 18.9941 7.50589 19.7998 8.5 19.7998V21L8.3457 20.9961C6.76055 20.9158 5.5 19.6051 5.5 18V5H18.5V18C18.5 19.6051 17.2394 20.9158 15.6543 20.9961L15.5 21V19.7998C16.4941 19.7998 17.2998 18.9941 17.2998 18Z" fill="#B9C5C9"/>
<path d="M4 5.6C4 5.26863 4.26863 5 4.6 5H19.4C19.7314 5 20 5.26863 20 5.6C20 5.93137 19.7314 6.2 19.4 6.2H4.6C4.26863 6.2 4 5.93137 4 5.6Z" fill="#B9C5C9"/>
<path d="M9.7 8.5C9.7 8.22386 9.92385 8 10.2 8C10.4761 8 10.7 8.22386 10.7 8.5V16.5C10.7 16.7761 10.4761 17 10.2 17C9.92385 17 9.7 16.7761 9.7 16.5V8.5Z" fill="#B9C5C9"/>
<path d="M13.3 8.5C13.3 8.22386 13.5239 8 13.8 8C14.0761 8 14.3 8.22386 14.3 8.5V16.5C14.3 16.7761 14.0761 17 13.8 17C13.5239 17 13.3 16.7761 13.3 16.5V8.5Z" fill="#B9C5C9"/>
<path d="M12 2C13.6569 2 15 3.34315 15 5H14C14 3.89543 13.1046 3 12 3C10.8954 3 10 3.89543 10 5H9C9 3.34315 10.3431 2 12 2Z" fill="#B9C5C9"/>
</svg>
