<svg width="24" height="24" viewBox="0 0 24 24" fill="none" xmlns="http://www.w3.org/2000/svg">
<path d="M8.28963 20C15.8368 20 19.9649 13.8437 19.9649 8.50523C19.9649 8.33042 19.9649 8.15626 19.9529 7.98298C20.756 7.41107 21.4491 6.70306 22 5.89179C21.2511 6.21845 20.4566 6.43286 19.6431 6.52738C20.4998 6.02241 21.1409 5.22842 21.4471 4.29288C20.6415 4.76349 19.7604 5.09518 18.8415 5.27349C17.2875 3.64657 14.6881 3.56803 13.0357 5.09802C11.9699 6.08476 11.5179 7.55503 11.8486 8.95813C8.54963 8.79513 5.47559 7.26098 3.39202 4.73702C2.30289 6.58295 2.85912 8.94456 4.66247 10.13C4.00936 10.1109 3.37068 9.93743 2.80001 9.62434C2.80001 9.64097 2.80001 9.65825 2.80001 9.67554C2.80045 11.5987 4.17736 13.2549 6.09205 13.6358C5.48804 13.798 4.85403 13.8218 4.23914 13.7052C4.7767 15.3509 6.31716 16.4784 8.07273 16.5107C6.61961 17.6351 4.8247 18.2453 2.97668 18.2436C2.65023 18.2429 2.32423 18.2234 2 18.1851C3.87647 19.3708 6.06005 19.9996 8.28963 19.9967" fill="white"/>
</svg>
