<svg width="24" height="24" viewBox="0 0 24 24" fill="none" xmlns="http://www.w3.org/2000/svg">
<path d="M3.3499 9.40063L11.3499 2.55619C11.7242 2.23599 12.2758 2.23599 12.6501 2.55619L20.6501 9.40063C20.8722 9.59062 21 9.86824 21 10.1605V19.2C21 19.7523 20.5523 20.2 20 20.2H15.25C14.6977 20.2 14.25 19.7523 14.25 19.2V14.7002C14.25 14.424 14.0261 14.2002 13.75 14.2002H10.25C9.97386 14.2002 9.75 14.424 9.75 14.7002V19.2C9.75 19.7523 9.30228 20.2 8.75 20.2H4C3.44772 20.2 3 19.7523 3 19.2V10.1605C3 9.86824 3.12784 9.59062 3.3499 9.40063Z" fill="white"/>
</svg>
