<svg width="24" height="24" viewBox="0 0 24 24" fill="none" xmlns="http://www.w3.org/2000/svg">
<path d="M5.94975 11.6066C6.34027 11.2161 6.97344 11.2161 7.36396 11.6066C7.75449 11.9971 7.75449 12.6303 7.36396 13.0208L5.94975 14.435C4.77817 15.6066 4.77817 17.5061 5.94975 18.6777C7.12132 19.8492 9.02082 19.8492 10.1924 18.6777L11.6066 17.2634C11.9971 16.8729 12.6303 16.8729 13.0208 17.2634C13.4113 17.654 13.4113 18.2871 13.0208 18.6777L11.6066 20.0919L11.4202 20.2686C9.4574 22.0423 6.42724 21.9836 4.53553 20.0919C2.64383 18.2002 2.58507 15.17 4.35876 13.2072L4.53553 13.0208L5.94975 11.6066Z" fill="#B9C5C9"/>
<path d="M13.0208 4.53552C14.9734 2.5829 18.1393 2.5829 20.0919 4.53552C22.0445 6.48814 22.0445 9.65397 20.0919 11.6066L18.6777 13.0208C18.2871 13.4113 17.654 13.4113 17.2635 13.0208C16.8729 12.6303 16.8729 11.9971 17.2635 11.6066L18.6777 10.1924C19.8492 9.0208 19.8492 7.12131 18.6777 5.94973C17.5061 4.77816 15.6066 4.77816 14.435 5.94973L13.0208 7.36395C12.6303 7.75447 11.9971 7.75447 11.6066 7.36395C11.2161 6.97342 11.2161 6.34026 11.6066 5.94973L13.0208 4.53552Z" fill="#B9C5C9"/>
<path d="M14.435 8.77816C14.8256 8.38764 15.4587 8.38764 15.8492 8.77816C16.2398 9.16869 16.2398 9.80185 15.8492 10.1924L10.1924 15.8492C9.80186 16.2398 9.1687 16.2398 8.77817 15.8492C8.38765 15.4587 8.38765 14.8255 8.77817 14.435L14.435 8.77816Z" fill="#B9C5C9"/>
</svg>
