<svg width="600" height="40" viewBox="0 0 600 40" fill="none" xmlns="http://www.w3.org/2000/svg">
<g clip-path="url(#clip0_134_476)">
<path d="M325.458 20H599.002" stroke="#B9C5C9" stroke-miterlimit="10" stroke-linecap="round"/>
<path d="M0 20H273.544" stroke="#B9C5C9" stroke-miterlimit="10" stroke-linecap="round"/>
<path d="M299.501 21C300.052 21 300.499 20.5523 300.499 20C300.499 19.4477 300.052 19 299.501 19C298.949 19 298.502 19.4477 298.502 20C298.502 20.5523 298.949 21 299.501 21Z" fill="#656A6D"/>
<path d="M299.501 1C299.777 1 300 0.776142 300 0.5C300 0.223858 299.777 0 299.501 0C299.225 0 299.002 0.223858 299.002 0.5C299.002 0.776142 299.225 1 299.501 1Z" fill="#656A6D"/>
<path d="M299.501 40C299.777 40 300 39.7761 300 39.5C300 39.2239 299.777 39 299.501 39C299.225 39 299.002 39.2239 299.002 39.5C299.002 39.7761 299.225 40 299.501 40Z" fill="#656A6D"/>
<path d="M299.501 3V15" stroke="#656A6D" stroke-miterlimit="10" stroke-linecap="round"/>
<path d="M299.501 25V37" stroke="#656A6D" stroke-miterlimit="10" stroke-linecap="round"/>
<path d="M318.968 20.5C319.244 20.5 319.468 20.2761 319.468 20C319.468 19.7239 319.244 19.5 318.968 19.5C318.693 19.5 318.469 19.7239 318.469 20C318.469 20.2761 318.693 20.5 318.968 20.5Z" fill="#656A6D"/>
<path d="M322.463 20.5C322.738 20.5 322.962 20.2761 322.962 20C322.962 19.7239 322.738 19.5 322.463 19.5C322.187 19.5 321.963 19.7239 321.963 20C321.963 20.2761 322.187 20.5 322.463 20.5Z" fill="#656A6D"/>
<path d="M280.033 20.5C280.309 20.5 280.533 20.2761 280.533 20C280.533 19.7239 280.309 19.5 280.033 19.5C279.758 19.5 279.534 19.7239 279.534 20C279.534 20.2761 279.758 20.5 280.033 20.5Z" fill="#656A6D"/>
<path d="M276.539 20.5C276.815 20.5 277.038 20.2761 277.038 20C277.038 19.7239 276.815 19.5 276.539 19.5C276.264 19.5 276.04 19.7239 276.04 20C276.04 20.2761 276.264 20.5 276.539 20.5Z" fill="#656A6D"/>
<path d="M316.472 20H304.492" stroke="#656A6D" stroke-miterlimit="10" stroke-linecap="round"/>
<path d="M294.509 20H282.529" stroke="#656A6D" stroke-miterlimit="10" stroke-linecap="round"/>
<path d="M309.384 10.1L303.734 15.76" stroke="#656A6D" stroke-miterlimit="10" stroke-linecap="round"/>
<path d="M295.268 24.24L289.617 29.9" stroke="#656A6D" stroke-miterlimit="10" stroke-linecap="round"/>
<path d="M289.617 10.1L295.268 15.76" stroke="#656A6D" stroke-miterlimit="10" stroke-linecap="round"/>
<path d="M303.734 24.24L309.384 29.9" stroke="#656A6D" stroke-miterlimit="10" stroke-linecap="round"/>
</g>
<defs>
<clipPath id="clip0_134_476">
<rect width="600" height="40" fill="white"/>
</clipPath>
</defs>
</svg>
