<svg width="600" height="200" viewBox="0 0 600 200" fill="none" xmlns="http://www.w3.org/2000/svg">
<path d="M299.5 105H300.5V154.52C300.5 154.78 300.29 155 300.02 155H299.97C299.71 155 299.49 154.79 299.49 154.52V105H299.5Z" fill="#E2E8F0"/>
<path d="M300.5 157.5C300.5 157.224 300.276 157 300 157C299.724 157 299.5 157.224 299.5 157.5V159.5C299.5 159.776 299.724 160 300 160C300.276 160 300.5 159.776 300.5 159.5V157.5Z" fill="#E2E8F0"/>
<path d="M312.065 101.898L312.931 101.398L337.691 144.284C337.821 144.509 337.749 144.805 337.516 144.94L337.472 144.965C337.247 145.095 336.952 145.023 336.817 144.789L312.057 101.903L312.065 101.898Z" fill="#E2E8F0"/>
<path d="M339.182 146.861C339.044 146.622 338.738 146.54 338.499 146.678C338.26 146.816 338.178 147.122 338.316 147.361L339.316 149.093C339.454 149.333 339.76 149.414 339.999 149.276C340.238 149.138 340.32 148.833 340.182 148.593L339.182 146.861Z" fill="#E2E8F0"/>
<path d="M321.4 92.9365L321.9 92.0705L364.786 116.83C365.011 116.96 365.096 117.252 364.961 117.486L364.936 117.529C364.806 117.755 364.514 117.84 364.281 117.705L321.395 92.9451L321.4 92.9365Z" fill="#E2E8F0"/>
<path d="M367.365 118.322C367.126 118.184 366.82 118.266 366.682 118.505C366.544 118.744 366.626 119.05 366.865 119.188L368.597 120.188C368.837 120.326 369.142 120.244 369.28 120.005C369.419 119.766 369.337 119.46 369.097 119.322L367.365 118.322Z" fill="#E2E8F0"/>
<path d="M325 81V80L599.5 80C599.78 80 600 80.22 600 80.5C600 80.78 599.78 81 599.5 81L325 81Z" fill="#E2E8F0"/>
<path d="M275 80V81L0.5 81C0.220001 81 0 80.78 0 80.5C0 80.22 0.220001 80 0.5 80L275 80Z" fill="#E2E8F0"/>
<path d="M278.1 92.0657L278.6 92.9318L235.714 117.692C235.489 117.822 235.194 117.75 235.059 117.516L235.034 117.473C234.904 117.248 234.976 116.952 235.209 116.817L278.095 92.0571L278.1 92.0657Z" fill="#E2E8F0"/>
<path d="M233.135 119.183C233.374 119.045 233.456 118.739 233.318 118.5C233.18 118.261 232.874 118.179 232.635 118.317L230.903 119.317C230.663 119.455 230.581 119.761 230.72 120C230.858 120.239 231.163 120.321 231.403 120.183L233.135 119.183Z" fill="#E2E8F0"/>
<path d="M287.064 101.398L287.93 101.898L263.17 144.784C263.04 145.009 262.748 145.095 262.514 144.96L262.471 144.935C262.246 144.805 262.16 144.513 262.295 144.279L287.055 101.393L287.064 101.398Z" fill="#E2E8F0"/>
<path d="M261.689 147.361C261.827 147.122 261.745 146.816 261.506 146.678C261.267 146.54 260.961 146.622 260.823 146.861L259.823 148.593C259.685 148.833 259.767 149.138 260.006 149.276C260.245 149.414 260.551 149.333 260.689 149.093L261.689 147.361Z" fill="#E2E8F0"/>
<path d="M317.316 98.0349L318.023 97.3278L338.975 118.279C339.116 118.421 339.116 118.661 338.975 118.803L338.791 118.986C338.649 119.128 338.409 119.128 338.267 118.986L317.316 98.0349Z" fill="#E2E8F0"/>
<path d="M341.015 120.307C340.819 120.112 340.503 120.112 340.307 120.307C340.112 120.503 340.112 120.819 340.307 121.014L341.722 122.429C341.917 122.624 342.233 122.624 342.429 122.429C342.624 122.233 342.624 121.917 342.429 121.722L341.015 120.307Z" fill="#E2E8F0"/>
<path d="M344.547 123.837C344.351 123.642 344.035 123.642 343.84 123.837C343.644 124.033 343.644 124.349 343.84 124.544L345.254 125.959C345.449 126.154 345.766 126.154 345.961 125.959C346.156 125.763 346.156 125.447 345.961 125.252L344.547 123.837Z" fill="#E2E8F0"/>
<path d="M324.016 86.9483L324.274 85.9824L352.895 93.6512C353.088 93.7029 353.208 93.9112 353.156 94.1044L353.089 94.3555C353.037 94.5487 352.829 94.6689 352.636 94.6171L324.016 86.9483Z" fill="#E2E8F0"/>
<path d="M355.669 94.3945C355.403 94.323 355.128 94.4813 355.057 94.7481C354.985 95.0148 355.144 95.289 355.41 95.3604L357.342 95.8781C357.609 95.9495 357.883 95.7912 357.955 95.5245C358.026 95.2578 357.868 94.9836 357.601 94.9121L355.669 94.3945Z" fill="#E2E8F0"/>
<path d="M360.505 95.6956C360.238 95.6241 359.964 95.7824 359.893 96.0491C359.821 96.3159 359.979 96.59 360.246 96.6615L362.178 97.1792C362.445 97.2506 362.719 97.0923 362.79 96.8256C362.862 96.5589 362.704 96.2847 362.437 96.2132L360.505 95.6956Z" fill="#E2E8F0"/>
<path d="M275.727 85.9879L275.986 86.9538L247.365 94.6226C247.172 94.6744 246.964 94.5542 246.912 94.361L246.845 94.1099C246.793 93.9167 246.913 93.7085 247.107 93.6567L275.727 85.9879Z" fill="#E2E8F0"/>
<path d="M244.591 95.366C244.858 95.2945 245.016 95.0203 244.945 94.7536C244.873 94.4869 244.599 94.3286 244.332 94.4L242.4 94.9177C242.134 94.9891 241.975 95.2633 242.047 95.53C242.118 95.7968 242.392 95.9551 242.659 95.8836L244.591 95.366Z" fill="#E2E8F0"/>
<path d="M239.755 96.657C240.022 96.5855 240.18 96.3113 240.109 96.0446C240.037 95.7779 239.763 95.6196 239.497 95.6911L237.565 96.2087C237.298 96.2802 237.14 96.5543 237.211 96.8211C237.283 97.0878 237.557 97.2461 237.823 97.1746L239.755 96.657Z" fill="#E2E8F0"/>
<path d="M281.971 97.3219L282.678 98.029L261.727 118.981C261.585 119.122 261.345 119.122 261.203 118.981L261.02 118.797C260.878 118.655 260.878 118.415 261.02 118.273L281.971 97.3219Z" fill="#E2E8F0"/>
<path d="M259.687 121.008C259.882 120.813 259.882 120.497 259.687 120.301C259.491 120.106 259.175 120.106 258.979 120.301L257.565 121.716C257.37 121.911 257.37 122.227 257.565 122.423C257.761 122.618 258.077 122.618 258.272 122.423L259.687 121.008Z" fill="#E2E8F0"/>
<path d="M256.165 124.549C256.36 124.353 256.36 124.037 256.165 123.841C255.969 123.646 255.653 123.646 255.457 123.841L254.043 125.256C253.848 125.451 253.848 125.767 254.043 125.963C254.239 126.158 254.555 126.158 254.75 125.963L256.165 124.549Z" fill="#E2E8F0"/>
<path d="M293.049 104.022L294.015 104.281L286.346 132.901C286.294 133.094 286.086 133.215 285.893 133.163L285.642 133.096C285.448 133.044 285.328 132.836 285.38 132.642L293.049 104.022Z" fill="#E2E8F0"/>
<path d="M285.599 135.675C285.671 135.408 285.513 135.134 285.246 135.063C284.979 134.991 284.705 135.15 284.634 135.416L284.116 137.348C284.044 137.615 284.203 137.889 284.469 137.961C284.736 138.032 285.01 137.874 285.082 137.607L285.599 135.675Z" fill="#E2E8F0"/>
<path d="M284.304 140.504C284.375 140.237 284.217 139.963 283.95 139.892C283.684 139.82 283.409 139.979 283.338 140.245L282.82 142.177C282.749 142.444 282.907 142.718 283.174 142.79C283.441 142.861 283.715 142.703 283.786 142.436L284.304 140.504Z" fill="#E2E8F0"/>
<path d="M305.991 104.279L306.957 104.021L314.625 132.641C314.677 132.834 314.557 133.042 314.364 133.094L314.113 133.161C313.919 133.213 313.711 133.093 313.66 132.9L305.991 104.279Z" fill="#E2E8F0"/>
<path d="M315.362 135.415C315.29 135.148 315.016 134.99 314.75 135.061C314.483 135.133 314.325 135.407 314.396 135.674L314.914 137.606C314.985 137.872 315.259 138.031 315.526 137.959C315.793 137.888 315.951 137.613 315.88 137.347L315.362 135.415Z" fill="#E2E8F0"/>
<path d="M316.668 140.244C316.596 139.977 316.322 139.819 316.055 139.89C315.788 139.962 315.63 140.236 315.702 140.503L316.219 142.435C316.291 142.701 316.565 142.86 316.832 142.788C317.098 142.717 317.257 142.442 317.185 142.176L316.668 140.244Z" fill="#E2E8F0"/>
<path d="M300 105C286.19 105 275 93.81 275 80H274C274 94.34 285.66 106 300 106C314.34 106 326 94.34 326 80H325C325 93.81 313.81 105 300 105Z" fill="#E2E8F0"/>
<path d="M315.9 80C315.9 88.78 308.78 95.9 300 95.9C291.22 95.9 284.1 88.78 284.1 80" stroke="#E2E8F0" stroke-miterlimit="10"/>
</svg>
