<svg width="44" height="148" viewBox="0 0 44 148" fill="none" xmlns="http://www.w3.org/2000/svg">
<g clip-path="url(#clip0_112_611)">
<path d="M44 69.9C37.09 75.92 33.91 78.3 29.96 77.05C24.72 74.23 20.65 70.14 16.44 66.09C12.26 62.13 8.11 57.93 4 54C8.07 58.11 12.11 62.25 16.11 66.43C20.16 70.64 24.25 74.71 27.07 79.95C28.32 83.9 25.94 87.08 19.93 94C31.37 84.03 32.57 84.03 44.01 94C34.05 82.55 34.05 81.35 44.01 69.9H44Z" fill="url(#paint0_linear_112_611)"/>
<path d="M29.98 66.35C30.29 67.34 29.7 68.13 28.19 69.86C31.05 67.37 31.35 67.37 34.21 69.86C31.72 67 31.72 66.7 34.21 63.84C32.48 65.35 31.69 65.94 30.7 65.63C29.39 64.92 28.37 63.9 27.32 62.89C26.27 61.9 25.24 60.85 24.21 59.87C25.23 60.9 26.24 61.93 27.24 62.98C28.25 64.03 29.27 65.05 29.98 66.36V66.35Z" fill="url(#paint1_linear_112_611)"/>
<path d="M10.82 79.01C8.64 77.83 6.94 76.13 5.19 74.44C3.44 72.79 1.72 71.04 0 69.4C1.7 71.11 3.38 72.84 5.04 74.58C6.73 76.33 8.43 78.03 9.61 80.22C10.13 81.87 9.14 83.19 6.63 86.07C11.4 81.92 11.9 81.92 16.67 86.07C12.52 81.3 12.52 80.8 16.67 76.03C13.79 78.54 12.47 79.53 10.82 79.01Z" fill="url(#paint2_linear_112_611)"/>
</g>
<defs>
<linearGradient id="paint0_linear_112_611" x1="4" y1="54" x2="44" y2="94" gradientUnits="userSpaceOnUse">
<stop stop-color="white"/>
<stop offset="1" stop-color="#656A6D"/>
</linearGradient>
<linearGradient id="paint1_linear_112_611" x1="24.22" y1="59.86" x2="34.22" y2="69.86" gradientUnits="userSpaceOnUse">
<stop stop-color="white"/>
<stop offset="1" stop-color="#656A6D"/>
</linearGradient>
<linearGradient id="paint2_linear_112_611" x1="1.57192e-07" y1="69.41" x2="16.67" y2="86.08" gradientUnits="userSpaceOnUse">
<stop stop-color="white"/>
<stop offset="1" stop-color="#656A6D"/>
</linearGradient>
<clipPath id="clip0_112_611">
<rect width="44" height="40" fill="white" transform="translate(0 54)"/>
</clipPath>
</defs>
</svg>
