<svg width="36" height="36" viewBox="0 0 36 36" fill="none" xmlns="http://www.w3.org/2000/svg">
<g clip-path="url(#clip0_134_481)">
<path d="M28.5697 19.4472C27.9289 24.1776 24.1741 27.9288 19.4437 28.5732L19.3501 29.5308C24.6709 28.9116 28.9081 24.678 29.5273 19.3536L28.5697 19.4472ZM6.4729 16.65L7.4305 16.5564C8.0713 11.826 11.8261 8.0748 16.5565 7.4304L16.6501 6.4728C11.3257 7.092 7.0921 11.3256 6.4729 16.65ZM19.3501 6.4728L19.4437 7.4304C24.1741 8.0712 27.9253 11.826 28.5697 16.5564L29.5273 16.65C28.9081 11.3292 24.6745 7.092 19.3501 6.4728ZM16.5565 28.5696C11.8261 27.9288 8.0749 24.174 7.4305 19.4436L6.4729 19.35C7.0921 24.6744 11.3257 28.908 16.6501 29.5272L16.5565 28.5696Z" fill="#B9C5C9"/>
<path d="M11.1997 19.8216L10.7029 19.7712C10.9729 20.88 11.4877 21.8916 12.1897 22.7484L12.4921 22.3776C11.8981 21.6324 11.4553 20.7648 11.1997 19.818V19.8216ZM22.3777 23.508C21.6325 24.102 20.7649 24.5484 19.8181 24.8004L19.7677 25.2972C20.8765 25.0272 21.8881 24.5124 22.7449 23.8104L22.3741 23.508H22.3777ZM24.8005 19.8216C24.5485 20.7684 24.1021 21.6324 23.5081 22.3812L23.8105 22.752C24.5125 21.8952 25.0273 20.8836 25.2973 19.7748L24.8005 19.8252V19.8216ZM23.8141 13.248L23.5081 13.6188C24.1021 14.364 24.5485 15.2316 24.8005 16.1784L25.2973 16.2288C25.0273 15.12 24.5125 14.1048 23.8105 13.2516L23.8141 13.248ZM13.2517 12.186L13.6225 12.492C14.3677 11.898 15.2353 11.4516 16.1821 11.1996L16.2325 10.7028C15.1237 10.9728 14.1085 11.4876 13.2553 12.1896L13.2517 12.186ZM10.7029 16.2288L11.1997 16.1784C11.4517 15.2316 11.8981 14.364 12.4921 13.6188L12.1897 13.248C11.4877 14.1048 10.9729 15.1164 10.7029 16.2252V16.2288ZM19.7713 10.7028L19.8217 11.1996C20.7685 11.4516 21.6361 11.898 22.3813 12.492L22.7521 12.186C21.8953 11.484 20.8837 10.9692 19.7749 10.6992L19.7713 10.7028ZM16.1785 24.8004C15.2317 24.5484 14.3641 24.102 13.6189 23.508L13.2481 23.8104C14.1049 24.5124 15.1165 25.0272 16.2253 25.2972L16.1749 24.8004H16.1785Z" fill="#B9C5C9"/>
<path d="M20.574 19.5336L36 18L20.574 16.4664L25.2756 10.7244L19.5336 15.426L18 0L16.4664 15.426L10.7244 10.7244L15.426 16.4664L0 18L15.426 19.5336L10.7244 25.2756L16.4664 20.574L18 36L19.5336 20.574L25.2756 25.2756L20.574 19.5336Z" fill="#656A6D"/>
</g>
<defs>
<clipPath id="clip0_134_481">
<rect width="36" height="36" fill="white"/>
</clipPath>
</defs>
</svg>
