<svg width="96" height="48" viewBox="0 0 96 48" fill="none" xmlns="http://www.w3.org/2000/svg">
<g clip-path="url(#clip0_134_478)">
<g clip-path="url(#clip1_134_478)">
<path d="M48.7401 21.49L48.6201 21.46C48.4301 21.42 48.2401 21.4 48.0501 21.4C47.8601 21.4 47.6701 21.42 47.4801 21.46L47.3601 21.49L47.9601 0H48.0601" fill="#656A6D"/>
<path d="M35.98 12.07L36.12 11.93L46.57 21.86L46.48 21.93C46.29 22.07 46.12 22.24 45.98 22.43L45.91 22.52L35.98 12.07Z" fill="#656A6D"/>
<path d="M50.11 22.43C49.97 22.24 49.8 22.07 49.61 21.93L49.52 21.86L59.97 11.93L60.11 12.07L50.18 22.52L50.11 22.43Z" fill="#656A6D"/>
<path d="M50.5801 24.57C50.6201 24.38 50.6501 24.19 50.6501 24C50.6501 23.81 50.6301 23.62 50.5801 23.43L50.55 23.31L84.0401 23.91V24.1L50.55 24.69L50.5801 24.57Z" fill="#656A6D"/>
<path d="M49.52 26.14L49.61 26.07C49.8 25.93 49.97 25.76 50.11 25.57L50.18 25.48L60.11 35.93L59.97 36.07L49.52 26.14Z" fill="#656A6D"/>
<path d="M47.9501 48L47.3501 26.51L47.4701 26.54C47.6601 26.58 47.8501 26.6 48.0401 26.6C48.2301 26.6 48.4201 26.58 48.6101 26.54L48.7301 26.51L48.1301 48H47.9401H47.9501Z" fill="#656A6D"/>
<path d="M12.05 24.1V23.91L45.5401 23.31L45.51 23.43C45.47 23.62 45.44 23.81 45.44 24C45.44 24.19 45.46 24.38 45.51 24.57L45.5401 24.69L12.05 24.1Z" fill="#656A6D"/>
<path d="M35.98 35.93L45.91 25.48L45.98 25.57C46.12 25.76 46.29 25.93 46.48 26.07L46.57 26.14L36.12 36.07L35.98 35.93Z" fill="#656A6D"/>
<path d="M6.52998 24.8C6.97181 24.8 7.32998 24.4418 7.32998 24C7.32998 23.5582 6.97181 23.2 6.52998 23.2C6.08815 23.2 5.72998 23.5582 5.72998 24C5.72998 24.4418 6.08815 24.8 6.52998 24.8Z" fill="#656A6D"/>
<path d="M0.5 24.5C0.776142 24.5 1 24.2761 1 24C1 23.7239 0.776142 23.5 0.5 23.5C0.223858 23.5 0 23.7239 0 24C0 24.2761 0.223858 24.5 0.5 24.5Z" fill="#656A6D"/>
<path d="M89.56 24.8C90.0018 24.8 90.36 24.4418 90.36 24C90.36 23.5582 90.0018 23.2 89.56 23.2C89.1182 23.2 88.76 23.5582 88.76 24C88.76 24.4418 89.1182 24.8 89.56 24.8Z" fill="#656A6D"/>
<path d="M95.5 24.5C95.7761 24.5 96 24.2761 96 24C96 23.7239 95.7761 23.5 95.5 23.5C95.2239 23.5 95 23.7239 95 24C95 24.2761 95.2239 24.5 95.5 24.5Z" fill="#656A6D"/>
</g>
</g>
<defs>
<clipPath id="clip0_134_478">
<rect width="96" height="48" fill="white"/>
</clipPath>
<clipPath id="clip1_134_478">
<rect width="96" height="48" fill="white"/>
</clipPath>
</defs>
</svg>
