<svg width="72" height="148" viewBox="0 0 72 148" fill="none" xmlns="http://www.w3.org/2000/svg">
<g clip-path="url(#clip0_112_612)">
<path d="M36 90C40.9706 90 45 82.8366 45 74C45 65.1634 40.9706 58 36 58C31.0294 58 27 65.1634 27 74C27 82.8366 31.0294 90 36 90Z" stroke="#B9C5C9" stroke-miterlimit="10"/>
<path d="M36 90C44.8366 90 52 82.8366 52 74C52 65.1634 44.8366 58 36 58C27.1634 58 20 65.1634 20 74C20 82.8366 27.1634 90 36 90Z" stroke="#8B9296" stroke-miterlimit="10"/>
<path d="M36 54C35.45 73.17 35 73.54 12 74C35 74.46 35.45 74.83 36 94C36.55 74.83 37 74.46 60 74C37 73.54 36.55 73.17 36 54Z" fill="#656A6D"/>
<path d="M63.9799 74.7999C64.4218 74.7999 64.7799 74.4418 64.7799 74C64.7799 73.5581 64.4218 73.2 63.9799 73.2C63.5381 73.2 63.1799 73.5581 63.1799 74C63.1799 74.4418 63.5381 74.7999 63.9799 74.7999Z" fill="#B9C5C9"/>
<path d="M71.5 74.5C71.7761 74.5 72 74.2761 72 74C72 73.7239 71.7761 73.5 71.5 73.5C71.2239 73.5 71 73.7239 71 74C71 74.2761 71.2239 74.5 71.5 74.5Z" fill="#B9C5C9"/>
<path d="M8.01997 74.7999C8.4618 74.7999 8.81997 74.4418 8.81997 74C8.81997 73.5581 8.4618 73.2 8.01997 73.2C7.57814 73.2 7.21997 73.5581 7.21997 74C7.21997 74.4418 7.57814 74.7999 8.01997 74.7999Z" fill="#B9C5C9"/>
<path d="M0.5 74.5C0.776142 74.5 1 74.2761 1 74C1 73.7239 0.776142 73.5 0.5 73.5C0.223858 73.5 0 73.7239 0 74C0 74.2761 0.223858 74.5 0.5 74.5Z" fill="#B9C5C9"/>
</g>
<defs>
<clipPath id="clip0_112_612">
<rect width="72" height="40" fill="white" transform="translate(0 54)"/>
</clipPath>
</defs>
</svg>
