<svg width="72" height="40" viewBox="0 0 72 40" fill="none" xmlns="http://www.w3.org/2000/svg">
<g clip-path="url(#clip0_134_480)">
<path d="M36 36C40.9706 36 45 28.8366 45 20C45 11.1634 40.9706 4 36 4C31.0294 4 27 11.1634 27 20C27 28.8366 31.0294 36 36 36Z" stroke="#B9C5C9" stroke-miterlimit="10"/>
<path d="M36 36C44.8366 36 52 28.8366 52 20C52 11.1634 44.8366 4 36 4C27.1634 4 20 11.1634 20 20C20 28.8366 27.1634 36 36 36Z" stroke="#8B9296" stroke-miterlimit="10"/>
<path d="M36 0C35.45 19.17 35 19.54 12 20C35 20.46 35.45 20.83 36 40C36.55 20.83 37 20.46 60 20C37 19.54 36.55 19.17 36 0Z" fill="#656A6D"/>
<path d="M63.9799 20.8C64.4218 20.8 64.7799 20.4418 64.7799 20C64.7799 19.5582 64.4218 19.2 63.9799 19.2C63.5381 19.2 63.1799 19.5582 63.1799 20C63.1799 20.4418 63.5381 20.8 63.9799 20.8Z" fill="#B9C5C9"/>
<path d="M71.5 20.5C71.7761 20.5 72 20.2761 72 20C72 19.7239 71.7761 19.5 71.5 19.5C71.2239 19.5 71 19.7239 71 20C71 20.2761 71.2239 20.5 71.5 20.5Z" fill="#B9C5C9"/>
<path d="M8.01997 20.8C8.4618 20.8 8.81997 20.4418 8.81997 20C8.81997 19.5582 8.4618 19.2 8.01997 19.2C7.57814 19.2 7.21997 19.5582 7.21997 20C7.21997 20.4418 7.57814 20.8 8.01997 20.8Z" fill="#B9C5C9"/>
<path d="M0.5 20.5C0.776142 20.5 1 20.2761 1 20C1 19.7239 0.776142 19.5 0.5 19.5C0.223858 19.5 0 19.7239 0 20C0 20.2761 0.223858 20.5 0.5 20.5Z" fill="#B9C5C9"/>
</g>
<defs>
<clipPath id="clip0_134_480">
<rect width="72" height="40" fill="white"/>
</clipPath>
</defs>
</svg>
