<svg width="36" height="144" viewBox="0 0 36 144" fill="none" xmlns="http://www.w3.org/2000/svg">
<g clip-path="url(#clip0_106_522)">
<path d="M28.5697 73.4472C27.9289 78.1776 24.1741 81.9288 19.4437 82.5732L19.3501 83.5308C24.6709 82.9116 28.9081 78.678 29.5273 73.3536L28.5697 73.4472ZM6.4729 70.65L7.4305 70.5564C8.0713 65.826 11.8261 62.0748 16.5565 61.4304L16.6501 60.4728C11.3257 61.092 7.0921 65.3256 6.4729 70.65ZM19.3501 60.4728L19.4437 61.4304C24.1741 62.0712 27.9253 65.826 28.5697 70.5564L29.5273 70.65C28.9081 65.3292 24.6745 61.092 19.3501 60.4728ZM16.5565 82.5696C11.8261 81.9288 8.0749 78.174 7.4305 73.4436L6.4729 73.35C7.0921 78.6744 11.3257 82.908 16.6501 83.5272L16.5565 82.5696Z" fill="#B9C5C9"/>
<path d="M11.1997 73.8216L10.7029 73.7712C10.9729 74.88 11.4877 75.8916 12.1897 76.7484L12.4921 76.3776C11.8981 75.6324 11.4553 74.7648 11.1997 73.818V73.8216ZM22.3777 77.508C21.6325 78.102 20.7649 78.5484 19.8181 78.8004L19.7677 79.2972C20.8765 79.0272 21.8881 78.5124 22.7449 77.8104L22.3741 77.508H22.3777ZM24.8005 73.8216C24.5485 74.7684 24.1021 75.6324 23.5081 76.3812L23.8105 76.752C24.5125 75.8952 25.0273 74.8836 25.2973 73.7748L24.8005 73.8252V73.8216ZM23.8141 67.248L23.5081 67.6188C24.1021 68.364 24.5485 69.2316 24.8005 70.1784L25.2973 70.2288C25.0273 69.12 24.5125 68.1048 23.8105 67.2516L23.8141 67.248ZM13.2517 66.186L13.6225 66.492C14.3677 65.898 15.2353 65.4516 16.1821 65.1996L16.2325 64.7028C15.1237 64.9728 14.1085 65.4876 13.2553 66.1896L13.2517 66.186ZM10.7029 70.2288L11.1997 70.1784C11.4517 69.2316 11.8981 68.364 12.4921 67.6188L12.1897 67.248C11.4877 68.1048 10.9729 69.1164 10.7029 70.2252V70.2288ZM19.7713 64.7028L19.8217 65.1996C20.7685 65.4516 21.6361 65.898 22.3813 66.492L22.7521 66.186C21.8953 65.484 20.8837 64.9692 19.7749 64.6992L19.7713 64.7028ZM16.1785 78.8004C15.2317 78.5484 14.3641 78.102 13.6189 77.508L13.2481 77.8104C14.1049 78.5124 15.1165 79.0272 16.2253 79.2972L16.1749 78.8004H16.1785Z" fill="#B9C5C9"/>
<path d="M20.574 73.5336L36 72L20.574 70.4664L25.2756 64.7244L19.5336 69.426L18 54L16.4664 69.426L10.7244 64.7244L15.426 70.4664L0 72L15.426 73.5336L10.7244 79.2756L16.4664 74.574L18 90L19.5336 74.574L25.2756 79.2756L20.574 73.5336Z" fill="#656A6D"/>
</g>
<defs>
<clipPath id="clip0_106_522">
<rect width="36" height="36" fill="white" transform="translate(0 54)"/>
</clipPath>
</defs>
</svg>
