<svg width="96" height="156" viewBox="0 0 96 156" fill="none" xmlns="http://www.w3.org/2000/svg">
<g clip-path="url(#clip0_106_521)">
<path d="M48.7401 75.49L48.6201 75.46C48.4301 75.42 48.2401 75.4 48.0501 75.4C47.8601 75.4 47.6701 75.42 47.4801 75.46L47.3601 75.49L47.9601 54H48.0601" fill="#656A6D"/>
<path d="M35.98 66.0701L36.12 65.9301L46.57 75.8601L46.48 75.9301C46.29 76.0701 46.12 76.2401 45.98 76.4301L45.91 76.5201L35.98 66.0701Z" fill="#656A6D"/>
<path d="M50.11 76.4301C49.97 76.2401 49.8 76.0701 49.61 75.9301L49.52 75.8601L59.97 65.9301L60.11 66.0701L50.18 76.5201L50.11 76.4301Z" fill="#656A6D"/>
<path d="M50.5801 78.5701C50.6201 78.3801 50.6501 78.1901 50.6501 78.0001C50.6501 77.8101 50.6301 77.6201 50.5801 77.4301L50.55 77.3101L84.0401 77.9101V78.1001L50.55 78.6901L50.5801 78.5701Z" fill="#656A6D"/>
<path d="M49.52 80.14L49.61 80.07C49.8 79.93 49.97 79.76 50.11 79.57L50.18 79.48L60.11 89.93L59.97 90.07L49.52 80.14Z" fill="#656A6D"/>
<path d="M47.9501 102L47.3501 80.51L47.4701 80.54C47.6601 80.58 47.8501 80.6 48.0401 80.6C48.2301 80.6 48.4201 80.58 48.6101 80.54L48.7301 80.51L48.1301 102H47.9401H47.9501Z" fill="#656A6D"/>
<path d="M12.05 78.1001V77.9101L45.5401 77.3101L45.51 77.4301C45.47 77.6201 45.44 77.8101 45.44 78.0001C45.44 78.1901 45.46 78.3801 45.51 78.5701L45.5401 78.6901L12.05 78.1001Z" fill="#656A6D"/>
<path d="M35.98 89.93L45.91 79.48L45.98 79.57C46.12 79.76 46.29 79.93 46.48 80.07L46.57 80.14L36.12 90.07L35.98 89.93Z" fill="#656A6D"/>
<path d="M6.52998 78.7999C6.97181 78.7999 7.32998 78.4418 7.32998 78C7.32998 77.5581 6.97181 77.2 6.52998 77.2C6.08815 77.2 5.72998 77.5581 5.72998 78C5.72998 78.4418 6.08815 78.7999 6.52998 78.7999Z" fill="#656A6D"/>
<path d="M0.5 78.5C0.776142 78.5 1 78.2761 1 78C1 77.7239 0.776142 77.5 0.5 77.5C0.223858 77.5 0 77.7239 0 78C0 78.2761 0.223858 78.5 0.5 78.5Z" fill="#656A6D"/>
<path d="M89.56 78.7999C90.0018 78.7999 90.36 78.4418 90.36 78C90.36 77.5581 90.0018 77.2 89.56 77.2C89.1182 77.2 88.76 77.5581 88.76 78C88.76 78.4418 89.1182 78.7999 89.56 78.7999Z" fill="#656A6D"/>
<path d="M95.5 78.5C95.7761 78.5 96 78.2761 96 78C96 77.7239 95.7761 77.5 95.5 77.5C95.2239 77.5 95 77.7239 95 78C95 78.2761 95.2239 78.5 95.5 78.5Z" fill="#656A6D"/>
</g>
<defs>
<clipPath id="clip0_106_521">
<rect width="96" height="48" fill="white" transform="translate(0 54)"/>
</clipPath>
</defs>
</svg>
