<svg width="600" height="200" viewBox="0 0 600 200" fill="none" xmlns="http://www.w3.org/2000/svg">
<path d="M324.62 80C324.72 80.38 324.79 80.75 324.79 81.14C324.79 81.53 324.72 81.9 324.62 82.28L600 81.14L324.62 80Z" fill="#E2E8F0"/>
<path d="M324.4 84.61C324.32 85.15 324.23 85.69 324.12 86.23L344.36 88.97L324.4 84.62V84.61Z" fill="#E2E8F0"/>
<path d="M323.43 88.79C323.26 89.31 323.07 89.82 322.87 90.33L342.33 96.54L323.43 88.79Z" fill="#E2E8F0"/>
<path d="M319.4 96.34C319.06 96.77 318.71 97.19 318.35 97.6L334.51 110.09L319.4 96.34Z" fill="#E2E8F0"/>
<path d="M316.46 99.48C316.05 99.85 315.63 100.19 315.2 100.53L328.95 115.64L316.46 99.48Z" fill="#E2E8F0"/>
<path d="M290.8 104L284.59 123.45L292.34 104.56C291.82 104.39 291.3 104.2 290.8 104Z" fill="#E2E8F0"/>
<path d="M294.91 105.25L292.17 125.48L296.52 105.53C295.98 105.45 295.44 105.36 294.9 105.25H294.91Z" fill="#E2E8F0"/>
<path d="M286.71 101.88L260.56 149.43L288.67 103.02C288 102.67 287.34 102.29 286.7 101.88H286.71Z" fill="#E2E8F0"/>
<path d="M300 105.78C299.62 105.78 299.24 105.77 298.86 105.75L300 160L301.14 105.75C300.76 105.77 300.38 105.78 300 105.78Z" fill="#E2E8F0"/>
<path d="M311.33 103.02L339.44 149.43L313.29 101.88C312.65 102.29 312 102.67 311.32 103.02H311.33Z" fill="#E2E8F0"/>
<path d="M303.47 105.53L307.82 125.48L305.08 105.25C304.55 105.36 304.01 105.45 303.46 105.53H303.47Z" fill="#E2E8F0"/>
<path d="M278.11 92.46L231.69 120.57L279.25 94.43C278.84 93.79 278.46 93.14 278.11 92.46Z" fill="#E2E8F0"/>
<path d="M320.75 94.43L368.31 120.57L321.89 92.46C321.54 93.13 321.16 93.79 320.75 94.43Z" fill="#E2E8F0"/>
<path d="M307.66 104.56L315.41 123.45L309.2 104C308.69 104.2 308.18 104.39 307.66 104.56Z" fill="#E2E8F0"/>
<path d="M276.57 88.79L257.67 96.54L277.13 90.33C276.93 89.82 276.74 89.31 276.57 88.79Z" fill="#E2E8F0"/>
<path d="M281.66 97.59C281.29 97.18 280.95 96.76 280.61 96.33L265.5 110.08L281.66 97.59Z" fill="#E2E8F0"/>
<path d="M283.54 99.48L271.05 115.64L284.8 100.53C284.37 100.19 283.95 99.84 283.54 99.48Z" fill="#E2E8F0"/>
<path d="M275.21 81.14C275.21 80.76 275.28 80.38 275.38 80L0 81.14L275.38 82.28C275.28 81.9 275.21 81.53 275.21 81.14Z" fill="#E2E8F0"/>
<path d="M275.88 86.22C275.77 85.69 275.68 85.15 275.6 84.6L255.64 88.95L275.88 86.21V86.22Z" fill="#E2E8F0"/>
</svg>
