<svg width="115" height="24" viewBox="0 0 115 24" fill="none" xmlns="http://www.w3.org/2000/svg">
<g clip-path="url(#clip0_134_477)">
<g clip-path="url(#clip1_134_477)">
<path d="M59.1599 13.66L64.5699 19.07" stroke="#656A6D" stroke-miterlimit="10" stroke-linecap="round"/>
<path d="M50.4299 4.93L55.8399 10.34" stroke="#656A6D" stroke-miterlimit="10" stroke-linecap="round"/>
<path d="M55.8399 13.66L50.4299 19.07" stroke="#656A6D" stroke-miterlimit="10" stroke-linecap="round"/>
<path d="M64.5699 4.93L59.1599 10.34" stroke="#656A6D" stroke-miterlimit="10" stroke-linecap="round"/>
<path d="M57.5 1C57.7761 1 58 0.776142 58 0.5C58 0.223858 57.7761 0 57.5 0C57.2239 0 57 0.223858 57 0.5C57 0.776142 57.2239 1 57.5 1Z" fill="#656A6D"/>
<path d="M0.5 12.5C0.776142 12.5 1 12.2761 1 12C1 11.7239 0.776142 11.5 0.5 11.5C0.223858 11.5 0 11.7239 0 12C0 12.2761 0.223858 12.5 0.5 12.5Z" fill="#656A6D"/>
<path d="M57.5 24C57.7761 24 58 23.7761 58 23.5C58 23.2239 57.7761 23 57.5 23C57.2239 23 57 23.2239 57 23.5C57 23.7761 57.2239 24 57.5 24Z" fill="#656A6D"/>
<path d="M114.5 12.5C114.776 12.5 115 12.2761 115 12C115 11.7239 114.776 11.5 114.5 11.5C114.224 11.5 114 11.7239 114 12C114 12.2761 114.224 12.5 114.5 12.5Z" fill="#656A6D"/>
<path d="M110.5 13C111.052 13 111.5 12.5523 111.5 12C111.5 11.4477 111.052 11 110.5 11C109.948 11 109.5 11.4477 109.5 12C109.5 12.5523 109.948 13 110.5 13Z" fill="#656A6D"/>
<path d="M4.5 13C5.05228 13 5.5 12.5523 5.5 12C5.5 11.4477 5.05228 11 4.5 11C3.94772 11 3.5 11.4477 3.5 12C3.5 12.5523 3.94772 13 4.5 13Z" fill="#656A6D"/>
<path d="M57.5 15V21" stroke="#656A6D" stroke-miterlimit="10" stroke-linecap="round"/>
<path d="M57.5 3V9" stroke="#656A6D" stroke-miterlimit="10" stroke-linecap="round"/>
<path d="M59.5 12H107.5" stroke="#656A6D" stroke-miterlimit="10" stroke-linecap="round"/>
<path d="M7.5 12H55.5" stroke="#656A6D" stroke-miterlimit="10" stroke-linecap="round"/>
<path d="M57.5 15C58.6046 15 59.5 13.6569 59.5 12C59.5 10.3431 58.6046 9 57.5 9C56.3954 9 55.5 10.3431 55.5 12C55.5 13.6569 56.3954 15 57.5 15Z" stroke="#656A6D" stroke-miterlimit="10"/>
</g>
</g>
<defs>
<clipPath id="clip0_134_477">
<rect width="115" height="24" fill="white"/>
</clipPath>
<clipPath id="clip1_134_477">
<rect width="115" height="24" fill="white"/>
</clipPath>
</defs>
</svg>
