<?xml version="1.0" encoding="UTF-8"?><svg id="_레이어_2" xmlns="http://www.w3.org/2000/svg" viewBox="0 0 24 24"><defs><style>.cls-1{fill:none;}</style></defs><g id="Dimensions"><rect class="cls-1" width="24" height="24"/><path d="M16.04,11.58c1.43-1.07,2.36-2.78,2.36-4.7,0-3.24-2.63-5.88-5.88-5.88H4.45c-.25,0-.45.2-.45.45v21.11c0,.25.2.45.45.45h9.68c3.24,0,5.88-2.63,5.88-5.88,0-2.57-1.66-4.76-3.96-5.55ZM5.5,2.5h7.03c2.41,0,4.38,1.96,4.38,4.38s-1.96,4.38-4.38,4.38h-7.03V2.5ZM14.12,21.5H5.5v-8.75h8.62c2.41,0,4.38,1.96,4.38,4.38s-1.96,4.38-4.38,4.38Z"/></g></svg>