<?xml version="1.0" encoding="UTF-8"?><svg id="_레이어_2" xmlns="http://www.w3.org/2000/svg" viewBox="0 0 24 24"><defs><style>.cls-1{fill:none;}</style></defs><g id="Dimensions"><rect class="cls-1" width="24" height="24"/><rect x="1" y="11.25" width="22" height="1.5" rx=".75" ry=".75"/><path d="M6.67,10.25c-.72-.67-1.17-1.62-1.17-2.68v-.38c0-2.03,1.65-3.68,3.68-3.68h5.63c1.77,0,3.24,1.26,3.59,2.93.07.34.38.57.72.57.47,0,.84-.44.74-.9-.5-2.33-2.58-4.1-5.05-4.1h-5.63c-2.85,0-5.18,2.33-5.18,5.18v.38c0,.98.29,1.9.77,2.68h1.9Z"/><path d="M17.33,13.75c.72.67,1.17,1.62,1.17,2.68,0,2.25-1.82,4.07-4.07,4.07h-5.25c-1.77,0-3.24-1.26-3.59-2.93-.07-.34-.38-.57-.72-.57-.47,0-.84.44-.74.9.5,2.33,2.58,4.1,5.05,4.1,0,0,2.86,0,5.63,0,2.85,0,5.18-2.33,5.18-5.18v-.32c0-1.01-.3-1.95-.78-2.75h-1.89Z"/></g></svg>