<?xml version="1.0" encoding="UTF-8"?><svg id="_레이어_2" xmlns="http://www.w3.org/2000/svg" viewBox="0 0 24 24"><defs><style>.cls-1{fill:none;}</style></defs><g id="Dimensions"><rect class="cls-1" width="24" height="24"/><path d="M12,22.25c-5.65,0-10.25-4.6-10.25-10.25S6.35,1.75,12,1.75s10.25,4.6,10.25,10.25-4.6,10.25-10.25,10.25Z"/><path d="M12,2.5c5.24,0,9.5,4.26,9.5,9.5s-4.26,9.5-9.5,9.5S2.5,17.24,2.5,12,6.76,2.5,12,2.5M12,1C5.92,1,1,5.92,1,12s4.92,11,11,11,11-4.92,11-11S18.08,1,12,1h0Z"/></g></svg>