<?xml version="1.0" encoding="UTF-8"?><svg id="_레이어_2" xmlns="http://www.w3.org/2000/svg" viewBox="0 0 24 24"><defs><style>.cls-1{fill:none;}</style></defs><g id="Dimensions"><rect class="cls-1" width="24" height="24"/><path d="M18,2.5c.28,0,.5.22.5.5v5c0,.28-.22.5-.5.5H6c-.28,0-.5-.22-.5-.5V3c0-.28.22-.5.5-.5h12M18,1H6c-1.1,0-2,.9-2,2v5c0,1.1.9,2,2,2h12c1.1,0,2-.9,2-2V3c0-1.1-.9-2-2-2h0Z"/><path d="M18,15.5c.28,0,.5.22.5.5v5c0,.28-.22.5-.5.5H6c-.28,0-.5-.22-.5-.5v-5c0-.28.22-.5.5-.5h12M18,14H6c-1.1,0-2,.9-2,2v5c0,1.1.9,2,2,2h12c1.1,0,2-.9,2-2v-5c0-1.1-.9-2-2-2h0Z"/><rect x="3" y="11.25" width="2.5" height="1.5" rx=".75" ry=".75"/><rect x="18.5" y="11.25" width="2.5" height="1.5" rx=".75" ry=".75"/><rect x="6.88" y="11.25" width="2.5" height="1.5" rx=".75" ry=".75"/><rect x="10.75" y="11.25" width="2.5" height="1.5" rx=".75" ry=".75"/><rect x="14.62" y="11.25" width="2.5" height="1.5" rx=".75" ry=".75"/></g></svg>