<?xml version="1.0" encoding="UTF-8"?><svg id="_레이어_2" xmlns="http://www.w3.org/2000/svg" viewBox="0 0 24 24"><defs><style>.cls-1{fill:none;}</style></defs><g id="Dimensions"><rect class="cls-1" width="24" height="24"/><path d="M20,2h-10.79c-.13,0-.26.05-.35.15l-.71.71s0,0,0,0l-5.29,5.29-.71.71c-.09.09-.15.22-.15.35v10.79c0,1.1.9,2,2,2h16c1.1,0,2-.9,2-2V4c0-1.1-.9-2-2-2ZM7.5,5.62v1.88h-1.88l1.88-1.88ZM20.5,20c0,.28-.22.5-.5.5H4c-.28,0-.5-.22-.5-.5v-11h5c.28,0,.5-.22.5-.5V3.5h11c.28,0,.5.22.5.5v16Z"/></g></svg>