<?xml version="1.0" encoding="UTF-8"?><svg id="_레이어_2" xmlns="http://www.w3.org/2000/svg" viewBox="0 0 24 24"><defs><style>.cls-1{fill:none;}</style></defs><g id="Dimensions"><rect class="cls-1" width="24" height="24"/><path d="M9.53,4.5h.72c.41,0,.75-.34.75-.75h0c0-.41-.34-.75-.75-.75h-.72C4.84,3,1,6.84,1,11.53h0v7.75c0,.95.81,1.72,1.82,1.72h6.36c1,0,1.82-.77,1.82-1.72v-6.03c0-.95-.81-1.72-1.82-1.72H2.5c0-3.88,3.15-7.03,7.03-7.03ZM9.5,13.25v6.03c0,.17-.14.3-.32.3H2.82c-.18,0-.32-.14-.32-.3v-6.33h6.68c.18,0,.32.14.32.3Z"/><path d="M21.53,4.5h.72c.41,0,.75-.34.75-.75h0c0-.41-.34-.75-.75-.75h-.72c-4.69,0-8.53,3.84-8.53,8.53h0v7.75c0,.95.81,1.72,1.82,1.72h6.36c1,0,1.82-.77,1.82-1.72v-6.03c0-.95-.81-1.72-1.82-1.72h-6.68c0-3.88,3.15-7.03,7.03-7.03ZM21.5,13.25v6.03c0,.17-.14.3-.32.3h-6.36c-.18,0-.32-.14-.32-.3v-6.33h6.68c.18,0,.32.14.32.3Z"/></g></svg>