<?xml version="1.0" encoding="UTF-8"?><svg id="_레이어_2" xmlns="http://www.w3.org/2000/svg" viewBox="0 0 24 24"><defs><style>.cls-1{fill:none;}</style></defs><g id="Dimensions"><rect class="cls-1" width="24" height="24"/><rect x="3" y="21.5" width="18" height="1.5" rx=".75" ry=".75"/><path d="M18.25,1c-.41,0-.75.34-.75.75v11.01c0,2.87-2.09,5.44-4.95,5.72-3.28.32-6.05-2.26-6.05-5.47V1.75c0-.41-.34-.75-.75-.75h0c-.41,0-.75.34-.75.75v10.99c0,3.55,2.54,6.73,6.06,7.2,4.26.56,7.94-2.78,7.94-6.94V1.75c0-.41-.34-.75-.75-.75h0Z"/></g></svg>